<svg xmlns="http://www.w3.org/2000/svg" xmlns:xlink="http://www.w3.org/1999/xlink"
    viewBox="0 0 44.387 34.614" overflow="visible">
    <g>
        <path
            d="M 25.713 34.494 C 26.182 34.709 26.734 34.632 27.125 34.295 L 42.782 20.805 C 43.802 19.927 44.387 18.651 44.387 17.307 C 44.387 15.964 43.801 14.686 42.782 13.81 L 37.37 9.146 C 37.308 9.088 37.245 9.032 37.18 8.976 C 37.15 8.951 37.119 8.927 37.088 8.904 L 27.125 0.321 C 26.574 -0.155 25.741 -0.093 25.264 0.458 C 25.036 0.723 24.922 1.068 24.948 1.417 C 24.973 1.765 25.137 2.09 25.402 2.318 L 35.6 11.105 C 36.268 11.749 36.647 12.636 36.649 13.564 C 36.653 14.559 36.223 15.506 35.473 16.159 L 25.397 24.934 C 25.109 25.185 24.944 25.548 24.944 25.93 L 24.944 33.296 C 24.944 33.812 25.245 34.281 25.713 34.496 Z M 17.262 34.293 C 17.501 34.5 17.807 34.613 18.123 34.613 L 18.124 34.613 C 18.676 34.614 19.169 34.271 19.362 33.754 C 19.554 33.237 19.404 32.655 18.986 32.295 L 8.789 23.51 C 8.121 22.866 7.743 21.979 7.74 21.052 C 7.737 20.057 8.166 19.109 8.917 18.456 L 18.992 9.68 C 19.28 9.43 19.445 9.067 19.445 8.685 L 19.445 1.319 C 19.445 0.804 19.145 0.335 18.676 0.12 C 18.206 -0.095 17.654 -0.017 17.263 0.321 L 1.605 13.81 C 0.586 14.686 0 15.963 0 17.307 C 0 18.651 0.586 19.928 1.605 20.805 L 7.017 25.468 C 7.079 25.526 7.142 25.583 7.207 25.639 C 7.237 25.664 7.267 25.688 7.299 25.711 L 17.262 34.294 Z"
            fill="rgb(36,104,255)"></path>
        <path
            d="M 26.681 11.42 L 15.803 20.79 C 15.472 21.071 15.283 21.483 15.285 21.917 C 15.283 22.351 15.473 22.764 15.803 23.045 C 16.361 23.529 17.19 23.529 17.748 23.045 L 28.628 13.678 C 28.962 13.391 29.145 12.99 29.145 12.551 C 29.145 12.111 28.962 11.71 28.628 11.423 C 28.069 10.943 27.234 10.943 26.679 11.421 L 26.681 11.421 Z"
            fill="rgb(0,0,0)"></path>
    </g>
</svg>